# xmcd
#
# Track frame offsets:
#	150
#	16487
#	29940
#	44666
#	55918
#	81633
#	98411
#	109249
#	129005
#	144554
#	162907
#	176632
#	190768
#	199855
#	213542
#	223783
#	242666
#	256223
#	272914
#
# Disc length: 3908 seconds
#
# Revision: 1
# Processed by: cddbd v1.5.2PL0 Copyright (c) Steve Scherf et al.
# Submitted via: audiograbber 1.83.01
#
DISCID=210f4213
DTITLE=Various Artist - CMAA Winners 2017 [Disc 2]
DYEAR=2017
DGENRE=Country
TTITLE0=Warren H Williams and Dani Young - Desert Water
TTITLE1=Allan Caswell - A Truckie Up In Queensland
TTITLE2=The Wilson Pickers - Through It All
TTITLE3=Runaway Dixie - Roundabout
TTITLE4=Jeff Brown feat. Anne Kirkpatrick - Orchid Street
TTITLE5=Katie Brianna - Birmingham
TTITLE6=Dean Perrett - Losing My Blues Tonight
TTITLE7=Roo Arcus - Red, White and Blue
TTITLE8=Kirsty Lee Akers - Burn Baby Burn
TTITLE9=Jeff Brown - God Given Rain
TTITLE10=Mickey Pye - Buckle Up
TTITLE11=Doug Bruce - The Tears
TTITLE12=The Hillbilly Goats - Cumberland Gap
TTITLE13=Seleen McAlister feat. Drew McAlister - I've Got You
TTITLE14=Lindsay Waddington - Twenty Five
TTITLE15=Michael Waugh - Heyfield Girl
TTITLE16=Graham Rodger - Ghosts Of The Murranji
TTITLE17=Justin Standley - Til' The Buzzer Goes Off
TTITLE18=Simply Bushed - Raise Your Glass
EXTD=
EXTT0=
EXTT1=
EXTT2=
EXTT3=
EXTT4=
EXTT5=
EXTT6=
EXTT7=
EXTT8=
EXTT9=
EXTT10=
EXTT11=
EXTT12=
EXTT13=
EXTT14=
EXTT15=
EXTT16=
EXTT17=
EXTT18=
PLAYORDER=
